<svg width="24" height="22" viewBox="0 0 24 22" fill="none" xmlns="http://www.w3.org/2000/svg">
<path d="M11.4302 1.71381C11.6368 1.29527 12.2336 1.29527 12.4402 1.71381L15.1142 7.13194C15.1962 7.29814 15.3547 7.41334 15.5382 7.43999L21.5174 8.30883C21.9793 8.37595 22.1637 8.94357 21.8295 9.2694L17.5029 13.4868C17.3702 13.6162 17.3096 13.8026 17.3409 13.9852L18.3623 19.9403C18.4412 20.4004 17.9584 20.7512 17.5452 20.534L12.1972 17.7224C12.0332 17.6361 11.8372 17.6361 11.6731 17.7224L6.32508 20.534C5.91195 20.7512 5.4291 20.4004 5.508 19.9403L6.52938 13.9852C6.56071 13.8026 6.50015 13.6162 6.36742 13.4868L2.04079 9.2694C1.70656 8.94357 1.891 8.37595 2.35289 8.30883L8.33214 7.43999C8.51556 7.41334 8.67412 7.29814 8.75615 7.13194L11.4302 1.71381Z" stroke="white" stroke-width="2" stroke-linejoin="round"/>
</svg>
